<?xml version="1.0" encoding="utf-8"?>
<!-- Generator: Adobe Illustrator 25.2.3, SVG Export Plug-In . SVG Version: 6.00 Build 0)  -->
<svg version="1.1" id="Layer_1" xmlns="http://www.w3.org/2000/svg" xmlns:xlink="http://www.w3.org/1999/xlink" x="0px" y="0px"
	 viewBox="0 0 50 50" style="enable-background:new 0 0 50 50;" xml:space="preserve">
<style type="text/css">
	.st0{fill:#7853A2;}
</style>
<g transform="translate(0,-952.36218)">
	<path class="st0" d="M44.9,968.2c0-2.1-2.2-3.4-4.1-2.4l-15.1,8.8c-0.8,0.5-1.4,1.4-1.4,2.4c0,1,0.6,1.9,1.4,2.4l15.1,8.8
		c1.9,1,4-0.3,4.1-2.4V968.2z"/>
</g>
<g transform="translate(0,-952.36218)">
	<path class="st0" d="M24.4,968.5c0-2.1-2.2-3.4-4.1-2.4l-15.1,8.8c-0.8,0.5-1.4,1.4-1.4,2.4c0,1,0.6,1.9,1.4,2.4l15.1,8.8
		c1.9,1,4-0.3,4.1-2.4V968.5z"/>
</g>
</svg>
